<?xml version="1.0" encoding="UTF-8"?>
<svg xmlns="http://www.w3.org/2000/svg" xmlns:xlink="http://www.w3.org/1999/xlink" width="100px" height="47px" viewBox="0 0 99 47" version="1.1">
<g id="surface1">
<path style=" stroke:none;fill-rule:nonzero;fill:rgb(0%,0%,0%);fill-opacity:1;" d="M 2.640625 17.476562 C 2.816406 17.605469 3.03125 17.648438 3.222656 17.742188 C 3.257812 17.910156 3.167969 18.128906 3.320312 18.25 C 3.75 18.527344 4.289062 18.34375 4.738281 18.214844 C 4.960938 18.167969 5.203125 18.023438 5.425781 18.140625 C 5.332031 18.296875 5.164062 18.4375 5.1875 18.632812 C 5.335938 18.933594 5.703125 18.953125 5.992188 18.984375 C 6.636719 19.039062 7.191406 18.625 7.820312 18.585938 C 8.039062 18.65625 8.210938 18.847656 8.445312 18.882812 C 9.109375 19.046875 9.769531 18.792969 10.433594 18.761719 C 10.71875 18.742188 10.941406 18.964844 11.21875 18.976562 C 11.847656 19.023438 12.472656 18.9375 13.101562 18.929688 C 13.394531 18.976562 13.652344 19.144531 13.9375 19.226562 C 14.695312 19.492188 15.511719 19.332031 16.292969 19.460938 C 16.652344 19.578125 17.007812 19.707031 17.390625 19.726562 C 18.136719 19.789062 18.894531 19.789062 19.636719 19.703125 C 20.058594 19.699219 20.476562 19.699219 20.898438 19.714844 C 21.277344 19.722656 21.617188 19.921875 21.992188 19.957031 C 22.324219 19.972656 22.65625 19.828125 22.980469 19.941406 C 23.304688 20.039062 23.640625 20.128906 23.980469 20.097656 C 24.058594 20.105469 24.15625 20.074219 24.203125 20.152344 C 24.371094 20.363281 24.558594 20.570312 24.816406 20.664062 C 24.992188 20.691406 25.179688 20.664062 25.339844 20.753906 C 25.671875 20.949219 25.953125 21.21875 26.285156 21.40625 C 26.5625 21.523438 26.878906 21.570312 27.117188 21.773438 C 27.296875 21.921875 27.554688 21.882812 27.746094 22.019531 C 28.066406 22.179688 28.320312 22.515625 28.703125 22.523438 C 28.871094 22.714844 29.023438 22.925781 29.242188 23.0625 C 29.609375 23.304688 29.921875 23.617188 30.292969 23.855469 C 30.527344 24.066406 30.730469 24.3125 30.996094 24.480469 C 31.308594 24.675781 31.519531 24.992188 31.832031 25.1875 C 32.085938 25.347656 32.242188 25.609375 32.445312 25.816406 C 32.582031 25.957031 32.773438 26.015625 32.949219 26.097656 C 33.167969 26.3125 33.367188 26.566406 33.65625 26.6875 C 34.019531 26.824219 34.191406 27.222656 34.554688 27.363281 C 34.871094 27.484375 35.070312 27.78125 35.359375 27.949219 C 35.585938 28.085938 35.8125 28.214844 36.050781 28.332031 C 35.957031 28.417969 36.910156 29.011719 37.136719 28.851562 C 37.109375 28.925781 37.917969 29.671875 38.363281 29.957031 C 38.421875 30.121094 38.46875 30.292969 38.511719 30.464844 C 38.527344 30.578125 38.550781 30.722656 38.421875 30.78125 C 37.25 31.554688 36.128906 32.40625 35.019531 33.265625 C 34.5625 33.671875 34.046875 34.023438 33.667969 34.507812 C 33.449219 34.789062 33.175781 35.105469 33.207031 35.484375 C 33.292969 35.78125 33.433594 36.066406 33.609375 36.320312 C 33.722656 36.492188 33.933594 36.527344 34.085938 36.640625 C 34.09375 36.816406 34.058594 36.992188 34.113281 37.160156 C 34.292969 37.605469 34.535156 38.0625 34.976562 38.292969 C 34.980469 38.832031 35.34375 39.285156 35.703125 39.652344 C 35.863281 39.824219 36.109375 39.808594 36.316406 39.878906 C 36.433594 40.152344 36.457031 40.46875 36.628906 40.71875 C 36.753906 40.875 36.894531 41.015625 37.042969 41.148438 C 37.246094 41.332031 37.519531 41.386719 37.757812 41.496094 C 37.871094 41.890625 38.21875 42.132812 38.503906 42.402344 C 38.777344 42.558594 39.113281 42.664062 39.429688 42.570312 C 39.539062 42.796875 39.625 43.0625 39.859375 43.191406 C 40.097656 43.34375 40.292969 43.632812 40.605469 43.609375 C 40.761719 43.621094 40.882812 43.507812 41.003906 43.433594 C 41.128906 43.707031 41.347656 43.925781 41.476562 44.195312 L 41.5625 44.105469 C 41.796875 44.230469 42.035156 44.34375 42.269531 44.457031 C 42.425781 44.382812 42.585938 44.328125 42.746094 44.265625 C 42.941406 44.453125 43.210938 44.523438 43.472656 44.515625 C 43.503906 44.546875 43.535156 44.578125 43.5625 44.605469 L 43.652344 44.515625 C 43.839844 44.636719 44.070312 44.660156 44.265625 44.546875 C 44.597656 44.667969 44.964844 44.765625 45.3125 44.660156 C 45.441406 44.632812 45.554688 44.5625 45.683594 44.535156 C 45.933594 44.550781 46.179688 44.652344 46.433594 44.628906 C 46.609375 44.539062 46.792969 44.476562 46.992188 44.460938 C 47.097656 44.308594 47.128906 44.125 47.1875 43.953125 C 47.210938 44.078125 47.222656 44.203125 47.265625 44.320312 C 47.480469 44.410156 47.695312 44.285156 47.8125 44.105469 C 47.851562 44.125 47.929688 44.167969 47.972656 44.1875 C 48.261719 43.960938 48.679688 44.175781 48.96875 43.96875 C 49.101562 43.726562 49.199219 43.457031 49.246094 43.1875 C 49.082031 42.527344 48.816406 41.898438 48.636719 41.242188 C 48.296875 40.035156 47.890625 38.851562 47.59375 37.632812 C 47.292969 36.503906 47.078125 35.355469 46.765625 34.234375 C 46.683594 33.78125 46.597656 33.308594 46.757812 32.863281 C 46.777344 32.355469 47.3125 32.09375 47.417969 31.613281 C 47.496094 31.292969 47.625 30.984375 47.722656 30.667969 C 47.910156 30.941406 48.117188 31.214844 48.394531 31.40625 C 48.671875 31.617188 48.902344 31.957031 49.285156 31.957031 C 49.65625 31.9375 50.023438 32 50.390625 31.984375 C 50.617188 31.996094 50.785156 32.183594 51.007812 32.203125 C 51.140625 32.183594 51.277344 32.132812 51.414062 32.183594 C 51.464844 32.136719 51.519531 32.089844 51.570312 32.039062 C 51.832031 32.078125 52.105469 32.140625 52.371094 32.066406 C 52.71875 31.96875 52.941406 31.652344 53.261719 31.507812 C 53.714844 31.363281 54.160156 31.195312 54.613281 31.058594 C 54.972656 30.867188 55.382812 30.835938 55.769531 30.726562 C 55.972656 30.675781 56.148438 30.554688 56.347656 30.5 C 56.539062 30.480469 56.734375 30.558594 56.921875 30.511719 C 57.179688 30.457031 57.414062 30.328125 57.65625 30.230469 C 57.871094 30.132812 58.113281 30.273438 58.332031 30.199219 C 58.554688 30.128906 58.761719 30.023438 58.96875 29.917969 C 59.191406 29.792969 59.472656 29.863281 59.691406 29.722656 C 59.914062 29.621094 60.113281 29.441406 60.371094 29.441406 C 60.710938 29.445312 61.035156 29.308594 61.308594 29.117188 C 61.441406 29.035156 61.566406 28.921875 61.730469 28.914062 C 62.195312 28.910156 62.542969 28.558594 62.929688 28.347656 C 63.214844 28.191406 63.488281 28.015625 63.769531 27.859375 C 64.207031 27.738281 64.601562 27.5 64.972656 27.242188 C 65.457031 27.085938 65.929688 26.84375 66.269531 26.453125 C 66.496094 26.492188 66.738281 26.527344 66.957031 26.445312 C 67.289062 26.277344 67.617188 26.097656 67.886719 25.835938 C 68.082031 25.636719 68.378906 25.640625 68.636719 25.59375 C 68.945312 25.429688 69.183594 25.167969 69.472656 24.976562 C 69.777344 24.890625 70.121094 24.929688 70.414062 24.789062 C 70.816406 24.546875 71.253906 24.242188 71.328125 23.742188 C 71.878906 23.726562 72.492188 23.625 72.871094 23.1875 C 73.054688 23.023438 73.054688 22.761719 73.066406 22.539062 C 73.730469 22.664062 74.433594 22.554688 75.011719 22.210938 C 75.152344 22.105469 75.324219 22.136719 75.484375 22.140625 C 76.125 22.1875 76.804688 22.035156 77.316406 21.640625 C 78.269531 21.65625 79.261719 21.652344 80.144531 21.242188 C 80.355469 21.078125 80.28125 20.78125 80.179688 20.582031 C 80.761719 20.496094 81.347656 20.4375 81.914062 20.273438 C 82.410156 20.203125 82.816406 19.890625 83.222656 19.621094 C 83.425781 19.496094 83.308594 19.25 83.246094 19.082031 C 83.691406 18.960938 84.144531 18.871094 84.582031 18.71875 C 84.953125 18.59375 85.34375 18.507812 85.675781 18.296875 C 85.863281 18.148438 86.027344 17.976562 86.222656 17.839844 C 86.207031 17.769531 86.191406 17.703125 86.175781 17.628906 C 86.945312 17.417969 87.761719 17.359375 88.503906 17.050781 C 88.761719 16.957031 88.898438 16.707031 89.074219 16.511719 C 89.035156 16.484375 88.957031 16.425781 88.917969 16.394531 C 89.1875 16.226562 89.511719 16.253906 89.808594 16.191406 C 90.355469 16.074219 90.945312 16.0625 91.433594 15.75 C 91.820312 15.601562 91.914062 14.960938 91.492188 14.792969 C 91.785156 14.785156 92.082031 14.789062 92.375 14.75 C 92.917969 14.6875 93.484375 14.695312 93.992188 14.464844 C 94.242188 14.355469 94.542969 14.21875 94.609375 13.921875 C 94.597656 13.738281 94.476562 13.574219 94.308594 13.492188 C 93.902344 13.230469 93.398438 13.261719 92.960938 13.082031 C 93.828125 13.007812 94.710938 12.992188 95.5625 12.773438 C 95.839844 12.691406 96.167969 12.558594 96.25 12.246094 C 96.324219 12.074219 96.15625 11.933594 96.039062 11.839844 C 95.574219 11.542969 95 11.617188 94.492188 11.464844 C 95.042969 11.390625 95.644531 11.457031 96.136719 11.152344 C 96.371094 11.054688 96.511719 10.75 96.386719 10.519531 C 96.035156 10.238281 95.566406 10.246094 95.140625 10.179688 C 93.695312 9.980469 92.257812 9.703125 90.804688 9.558594 C 89.53125 9.433594 88.261719 9.292969 86.984375 9.277344 C 86.515625 9.210938 86.042969 9.242188 85.574219 9.234375 C 84.667969 9.238281 83.761719 9.230469 82.855469 9.238281 C 82.488281 9.277344 82.125 9.300781 81.757812 9.289062 C 80.886719 9.347656 80.011719 9.371094 79.144531 9.484375 C 78.25 9.546875 77.375 9.765625 76.476562 9.769531 C 76.097656 9.832031 75.710938 9.808594 75.324219 9.8125 C 74.59375 9.851562 73.863281 9.949219 73.128906 9.988281 C 72.734375 10.0625 72.328125 10.078125 71.929688 10.125 C 71.128906 10.210938 70.351562 10.421875 69.570312 10.601562 C 69.382812 10.652344 69.1875 10.605469 69 10.601562 C 68.667969 10.578125 68.335938 10.648438 68.003906 10.65625 C 67.144531 10.730469 66.316406 10.984375 65.496094 11.234375 C 64.984375 11.445312 64.425781 11.507812 63.925781 11.746094 C 63.480469 11.945312 63.027344 12.128906 62.566406 12.285156 C 61.789062 12.613281 61.15625 13.1875 60.472656 13.667969 C 59.632812 14.261719 58.734375 14.769531 57.859375 15.3125 C 57.230469 15.636719 56.605469 15.976562 55.976562 16.304688 C 54.996094 16.742188 54 17.167969 52.945312 17.386719 C 52.355469 17.433594 51.761719 17.523438 51.167969 17.503906 C 50.765625 17.492188 50.359375 17.632812 49.964844 17.523438 C 49.765625 17.429688 49.578125 17.308594 49.410156 17.167969 C 49.21875 16.816406 49.160156 16.40625 49.238281 16.011719 C 49.316406 15.558594 49.203125 15.105469 49.144531 14.652344 C 49.105469 14.15625 48.855469 13.710938 48.707031 13.242188 C 48.40625 12.640625 48.113281 12.023438 47.996094 11.355469 C 47.949219 11.0625 47.808594 10.800781 47.738281 10.511719 C 47.832031 10.203125 47.882812 9.882812 47.976562 9.574219 C 48.070312 9.347656 47.828125 9.175781 47.734375 8.996094 C 47.542969 8.648438 47.296875 8.308594 47.253906 7.902344 C 47.230469 7.640625 47.039062 7.445312 46.933594 7.21875 C 46.769531 6.695312 46.191406 6.480469 45.925781 6.019531 C 45.84375 5.65625 45.8125 5.285156 45.761719 4.917969 C 45.667969 4.328125 45.722656 3.730469 45.691406 3.136719 C 45.671875 2.855469 45.742188 2.566406 45.652344 2.292969 C 45.253906 2.550781 45.125 3.027344 45.011719 3.457031 C 44.832031 4.195312 44.707031 4.949219 44.589844 5.699219 C 44.367188 6.460938 44.074219 7.25 43.480469 7.800781 C 43.265625 8.039062 43.09375 8.3125 42.917969 8.582031 C 42.742188 8.84375 42.722656 9.167969 42.671875 9.472656 C 42.613281 9.855469 42.671875 10.242188 42.6875 10.625 C 42.714844 10.886719 42.699219 11.160156 42.804688 11.40625 C 42.84375 11.523438 42.917969 11.652344 42.855469 11.769531 C 42.613281 12.296875 42.40625 12.835938 42.132812 13.34375 C 42 13.667969 41.761719 13.972656 41.769531 14.339844 C 41.789062 14.699219 41.589844 15.011719 41.464844 15.335938 C 41.285156 15.789062 41.09375 16.238281 40.878906 16.675781 C 40.398438 16.601562 39.910156 16.542969 39.457031 16.359375 C 38.457031 16.015625 37.648438 15.304688 36.875 14.609375 C 36.039062 13.917969 35.320312 13.101562 34.539062 12.351562 C 34.121094 11.964844 33.800781 11.492188 33.398438 11.085938 C 32.890625 10.429688 32.292969 9.761719 31.457031 9.539062 C 30.71875 9.355469 29.980469 9.085938 29.207031 9.128906 C 28.476562 9.199219 27.742188 9.203125 27.011719 9.265625 C 26.34375 9.300781 25.695312 9.5 25.023438 9.496094 C 24.515625 9.484375 24.011719 9.578125 23.503906 9.609375 C 22.886719 9.667969 22.273438 9.796875 21.679688 9.988281 C 20.996094 10.203125 20.277344 10.28125 19.589844 10.476562 C 18.820312 10.691406 18.054688 10.90625 17.285156 11.113281 C 14.515625 11.710938 11.804688 12.566406 9.183594 13.636719 C 7.550781 14.300781 5.980469 15.113281 4.460938 16.007812 C 3.894531 16.371094 3.277344 16.652344 2.742188 17.0625 C 2.632812 17.15625 2.46875 17.355469 2.640625 17.476562 Z M 2.640625 17.476562 "/>
</g>
</svg>
